<?xml version="1.0" standalone="no"?><!DOCTYPE svg PUBLIC "-//W3C//DTD SVG 1.1//EN" "http://www.w3.org/Graphics/SVG/1.1/DTD/svg11.dtd"><svg t="1570271823629" class="icon" viewBox="0 0 1024 1024" version="1.1" xmlns="http://www.w3.org/2000/svg" p-id="4010" xmlns:xlink="http://www.w3.org/1999/xlink" width="200" height="200"><defs><style type="text/css"></style></defs><path d="M157.538462 78.769231h708.923076c87.302564 0 157.538462 70.235897 157.538462 157.538461v380.717949c0 87.302564-70.235897 157.538462-157.538462 157.538462H610.461538l-98.461538 170.666666-105.025641-170.666666H157.538462c-87.302564 0-157.538462-70.235897-157.538462-157.538462V236.307692c0-87.302564 70.235897-157.538462 157.538462-157.538461z m6.564102 309.825641V288.820513h-59.076923v269.128205h59.076923v-27.569231c15.097436 17.066667 36.102564 27.569231 59.076923 27.569231 47.261538 0 85.333333-43.979487 85.333334-98.461539s-38.071795-98.461538-85.333334-98.461538c-22.974359 0-43.979487 10.502564-59.076923 27.569231zM203.487179 498.871795c-21.661538 0-39.384615-17.723077-39.384615-39.384616s17.723077-39.384615 39.384615-39.384615 39.384615 17.723077 39.384616 39.384615-17.723077 39.384615-39.384616 39.384616z m124.717949-157.538462c8.533333 1.312821 14.441026 3.282051 17.723077 5.251282 4.594872 3.282051 8.533333 9.846154 8.533333 14.441026v196.266667h65.641026V362.338462c0-19.035897-7.876923-37.415385-23.630769-54.482052C380.717949 290.789744 357.74359 282.25641 328.205128 282.25641v59.076923z m518.564103 195.610257v26.91282c0 7.876923-8.533333 18.379487-15.753846 22.317949-4.594872 3.282051-17.066667 4.594872-36.758975 3.938462v59.076923c41.353846-1.312821 70.892308-9.189744 87.958975-24.28718 25.6-22.974359 30.194872-53.825641 30.194871-62.358974V366.933333h-65.641025v14.441026c-14.441026-13.128205-32.820513-21.005128-52.512821-21.005128-47.261538 0-85.333333 43.979487-85.333333 98.461538s38.071795 98.461538 85.333333 98.461539c19.692308 0.65641 38.071795-7.220513 52.512821-20.348718z m-39.384616-38.071795c-21.661538 0-39.384615-17.723077-39.384615-39.384616s17.723077-39.384615 39.384615-39.384615 39.384615 17.723077 39.384616 39.384615-17.723077 39.384615-39.384616 39.384616z m-236.307692 59.076923c57.764103 0 105.025641-43.979487 105.025641-98.461539s-47.261538-98.461538-105.025641-98.461538-105.025641 43.979487-105.025641 98.461538 47.261538 98.461538 105.025641 98.461539z m0-59.076923c-21.661538 0-39.384615-17.723077-39.384615-39.384616s17.723077-39.384615 39.384615-39.384615 39.384615 17.723077 39.384615 39.384615-17.723077 39.384615-39.384615 39.384616z" p-id="4011"></path></svg>