<?xml version="1.0" standalone="no"?><!DOCTYPE svg PUBLIC "-//W3C//DTD SVG 1.1//EN" "http://www.w3.org/Graphics/SVG/1.1/DTD/svg11.dtd"><svg t="1570262248523" class="icon" viewBox="0 0 1024 1024" version="1.1" xmlns="http://www.w3.org/2000/svg" p-id="2570" xmlns:xlink="http://www.w3.org/1999/xlink" width="200" height="200"><defs><style type="text/css"></style></defs><path d="M897.531122 193.050808 123.956661 193.050808c-33.909297 0-61.398372 27.489074-61.398372 61.398372L62.558289 767.093862c0 33.909297 27.489074 61.398372 61.398372 61.398372l773.574461 0c33.909297 0 61.398372-27.489074 61.398372-61.398372L958.929494 254.449179C958.929494 220.539882 931.440419 193.050808 897.531122 193.050808zM920.045905 752.256946c0 22.606881-18.325367 40.932248-40.932248 40.932248l-736.227877 0c-22.605857 0-40.932248-18.325367-40.932248-40.932248L101.953532 269.285073c0-22.605857 18.326391-40.932248 40.932248-40.932248l736.227877 0c22.606881 0 40.932248 18.326391 40.932248 40.932248L920.045905 752.256946z" p-id="2571"></path><path d="M160.788521 691.168636 160.788521 308.635289l138.137127 0c89.788979 0 125.385708 38.784328 125.385708 96.1652 0 53.129035-30.283724 77.037561-61.099566 82.350566l0 1.063215c52.597939 7.969509 78.631872 44.629453 78.631872 95.101985 0 79.694063-52.066843 107.85238-124.854613 107.85238L160.788521 691.168636zM196.91737 477.587236l91.382267 0c75.444273 0 99.883895-26.564006 99.883895-72.786747 0-47.817052-28.690436-65.349357-107.85238-65.349357l-83.413781 0L196.91737 477.587236zM196.91737 660.353816l91.914386 0c79.694063 0 116.885104-10.626012 116.885104-77.037561 0-63.224973-44.62843-74.913177-112.63429-74.913177l-96.164177 0L196.918393 660.353816z" p-id="2572"></path><path d="M493.288335 587.408457l21.798469 0 0 86.612637 63.070454 0 0 17.148565L493.288335 691.169659 493.288335 587.408457z" p-id="2573"></path><path d="M584.408635 639.288035c0-29.209252 17.148565-54.786791 61.036122-54.786791 43.88858 0 61.036122 25.577538 61.036122 54.786791 0 29.210275-17.147542 54.786791-61.036122 54.786791C601.556177 694.074825 584.408635 668.49831 584.408635 639.288035zM683.808506 639.288035c0-22.815635-13.950733-38.510082-38.364773-38.510082s-38.364773 15.694447-38.364773 38.510082c0 22.816658 13.950733 38.511105 38.364773 38.511105S683.808506 662.104693 683.808506 639.288035z" p-id="2574"></path><path d="M832.479547 691.168636l-12.788258 0-3.051499-13.514805c-8.428973 10.171664-23.252587 16.420995-39.528272 16.420995-43.887556 0-61.036122-25.576515-61.036122-54.786791 0-29.209252 18.165732-54.786791 60.45386-54.786791 31.535227 0 51.736315 15.986089 54.060243 36.331463l-23.542182 0c-3.923356-14.096043-17.002232-20.054755-31.099299-20.054755-26.8843 0-37.202297 16.420995-37.202297 39.237653 0 27.610848 17.72878 37.783535 36.039821 37.783535 22.23542 0 32.407084-10.171664 35.895535-27.320229l-29.356608 0 0-16.275685 51.154054 0L832.478524 691.168636z" p-id="2575"></path><path d="M831.535035 360.353185c0 10.596336-8.590656 19.185968-19.185968 19.185968L562.161958 379.539152c-10.595312 0-19.185968-8.589632-19.185968-19.185968l0 0c0-10.596336 8.590656-19.185968 19.185968-19.185968l250.186086 0C822.94438 341.167217 831.535035 349.756849 831.535035 360.353185L831.535035 360.353185z" p-id="2576"></path><path d="M831.535035 456.283024c0 10.596336-8.590656 19.185968-19.185968 19.185968L562.161958 475.468992c-10.595312 0-19.185968-8.589632-19.185968-19.185968l0 0c0-10.596336 8.590656-19.185968 19.185968-19.185968l250.186086 0C822.94438 437.097056 831.535035 445.686688 831.535035 456.283024L831.535035 456.283024z" p-id="2577"></path></svg>