<?xml version="1.0" standalone="no"?><!DOCTYPE svg PUBLIC "-//W3C//DTD SVG 1.1//EN" "http://www.w3.org/Graphics/SVG/1.1/DTD/svg11.dtd"><svg t="1570271797632" class="icon" viewBox="0 0 3686 1024" version="1.1" xmlns="http://www.w3.org/2000/svg" p-id="2612" xmlns:xlink="http://www.w3.org/1999/xlink" width="719.921875" height="200"><defs><style type="text/css"></style></defs><path d="M180.87936 140.00128v145.63328c12.65664-14.72512 26.78784-25.7024 42.37312-32.95232a119.02976 119.02976 0 0 1 50.72896-10.8544c21.01248 0 39.26016 3.29728 54.72256 9.87136 15.44192 6.59456 27.2384 15.83104 35.34848 27.72992 8.11008 11.91936 12.98432 23.552 14.62272 34.95936 1.6384 11.40736 2.47808 35.71712 2.47808 72.97024V614.6048c0 36.98688-2.47808 64.53248-7.41376 82.65728s-16.52736 33.81248-34.77504 47.104c-18.24768 13.312-39.89504 19.968-64.98304 19.968a110.10048 110.10048 0 0 1-50.33984-11.79648c-15.58528-7.8848-29.83936-19.68128-42.74176-35.40992l-9.87136 38.0928H27.36128V140.00128h153.51808z m46.73536 254.21824c0-26.09152-1.65888-43.13088-4.93568-51.11808-3.29728-7.9872-9.76896-11.96032-19.37408-11.96032-9.37984 0-15.4624 3.4816-18.24768 10.4448-2.78528 6.9632-4.17792 24.51456-4.17792 52.6336v217.35424c0 27.09504 1.57696 44.46208 4.75136 52.06016 3.15392 7.59808 9.4208 11.40736 18.80064 11.40736 9.6256 0 15.89248-3.91168 18.80064-11.776 2.90816-7.86432 4.36224-26.7264 4.36224-56.6272V394.21952zM589.76256 140.00128v615.2192h-158.08512V140.00128h158.08512zM992.17408 428.032v123.4944c0 45.34272-2.27328 78.60224-6.84032 99.7376-4.56704 21.15584-14.31552 40.91904-29.26592 59.2896-14.9504 18.37056-34.14016 31.9488-57.56928 40.6528-23.4496 8.76544-50.33984 13.12768-80.75264 13.12768-33.95584 0-62.70976-3.74784-86.26176-11.20256-23.552-7.4752-41.86112-18.75968-54.90688-33.83296-13.04576-15.0528-22.36416-33.30048-27.93472-54.70208s-8.35584-53.51424-8.35584-96.33792v-129.20832c0-46.85824 5.05856-83.47648 15.19616-109.81376 10.1376-26.33728 28.3648-47.49312 54.72256-63.46752 26.33728-15.95392 60.04736-23.94112 101.08928-23.94112 34.44736 0 64.02048 5.12 88.73984 15.38048s43.76576 23.63392 57.18016 40.09984c13.4144 16.46592 22.60992 33.44384 27.5456 50.91328s7.41376 44.09344 7.41376 79.81056z m-153.51808-37.9904c0-25.84576-1.39264-42.10688-4.17792-48.82432-2.78528-6.71744-8.74496-10.07616-17.85856-10.07616s-15.19616 3.35872-18.24768 10.07616c-3.03104 6.71744-4.56704 22.99904-4.56704 48.82432v227.61472c0 23.81824 1.51552 39.34208 4.56704 46.53056 3.03104 7.24992 8.99072 10.83392 17.85856 10.83392 9.1136 0 15.13472-3.2768 18.04288-9.87136 2.90816-6.57408 4.36224-20.76672 4.36224-42.55744V390.0416zM1391.55456 250.96192v388.36224c0 52.44928-1.20832 86.3232-3.60448 101.66272-2.41664 15.31904-10.9568 31.51872-25.64096 48.64-14.70464 17.08032-35.14368 30.14656-61.37856 39.1168-26.2144 8.99072-59.22816 13.49632-98.97984 13.49632-48.90624 0-88.1664-8.2944-117.80096-24.90368-29.63456-16.5888-44.97408-49.19296-45.9776-97.83296h148.95104c0 22.30272 8.11008 33.44384 24.33024 33.44384 11.65312 0 19.37408-3.42016 23.18336-10.28096 3.80928-6.84032 5.69344-21.15584 5.69344-42.98752v-38.03136a146.06336 146.06336 0 0 1-41.61536 27.05408 117.32992 117.32992 0 0 1-45.79328 9.13408c-27.62752 0-50.33984-5.55008-68.21888-16.71168-17.85856-11.14112-30.08512-25.76384-36.67968-43.88864-6.59456-18.1248-9.87136-43.90912-9.87136-77.33248v-183.15264c0-47.88224 8.6016-82.3296 25.84576-103.36256 17.22368-21.01248 43.43808-31.5392 78.66368-31.5392 19.2512 0 36.78208 3.93216 52.6336 11.79648 15.83104 7.8848 29.94176 19.68128 42.37312 35.40992l11.01824-38.0928h142.86848z m-153.88672 133.75488c0-23.04-1.3312-37.74464-3.9936-44.07296-2.6624-6.32832-8.54016-9.50272-17.67424-9.50272-8.86784 0-15.13472 3.60448-18.80064 10.83392-3.6864 7.22944-5.50912 21.46304-5.50912 42.74176v169.472c0 22.56896 1.39264 37.1712 4.17792 43.88864 2.78528 6.71744 8.6016 10.07616 17.48992 10.07616 10.1376 0 16.71168-4.03456 19.7632-12.16512 3.03104-8.11008 4.56704-26.48064 4.56704-55.0912v-156.18048z" fill="" p-id="2613"></path></svg>