<?xml version="1.0" standalone="no"?><!DOCTYPE svg PUBLIC "-//W3C//DTD SVG 1.1//EN" "http://www.w3.org/Graphics/SVG/1.1/DTD/svg11.dtd"><svg t="1570271883592" class="icon" viewBox="0 0 1024 1024" version="1.1" xmlns="http://www.w3.org/2000/svg" p-id="7381" xmlns:xlink="http://www.w3.org/1999/xlink" width="200" height="200"><defs><style type="text/css"></style></defs><path d="M374.624 713.376a32 32 0 0 0-45.248 0l-96 96a32 32 0 1 0 45.248 45.248l96-96a32 32 0 0 0 0-45.248zM745.376 713.376l-128 128a32 32 0 1 0 45.248 45.248l128-128a32 32 0 1 0-45.248-45.248zM537.376 713.376l-224 224a32 32 0 1 0 45.248 45.248l224-224a32 32 0 1 0-45.248-45.248zM894.816 354.976C880 174.416 728.32 32 544 32 380.416 32 239.328 138.16 198.544 288H192C86.128 288 0 374.128 0 480s86.128 192 192 192h672c88.224 0 160-71.776 160-160 0-77.68-55.664-142.624-129.184-157.024zM864 608H192c-70.576 0-128-57.424-128-128s57.424-128 128-128h32a32 32 0 0 0 31.456-26.08C280.496 192.688 401.84 96 544 96c158.8 0 288 129.2 288 288a32 32 0 0 0 32 32c52.944 0 96 43.056 96 96s-43.056 96-96 96z" p-id="7382"></path></svg>